<svg width="356" height="329" viewBox="0 0 356 329" fill="none" xmlns="http://www.w3.org/2000/svg">
<path d="M329.383 275.324C317.719 284.223 303.508 293.238 289.537 297.488C285.51 298.75 281.353 299.556 277.147 299.89C273.214 300.206 269.256 299.899 265.418 298.978C255.335 296.465 245.983 292.065 236.933 286.924C233.977 285.242 231.054 283.483 228.149 281.685C223.406 278.748 218.711 275.709 214.002 272.743C213.297 272.294 212.597 271.853 211.892 271.416H211.887C210.751 270.701 209.612 269.996 208.469 269.301C208.269 269.177 208.068 269.058 207.863 268.933C205.705 267.624 203.51 266.344 201.279 265.094C201.005 264.944 200.732 264.79 200.458 264.64C196.14 262.241 191.703 260.065 187.162 258.121C184.18 256.862 181.159 255.728 178.108 254.761H178.104C176.938 254.393 175.767 254.046 174.592 253.729C171.069 252.761 167.479 252.057 163.851 251.623C158.852 251.017 153.796 251.057 148.807 251.743C148.47 251.79 148.136 251.837 147.799 251.893C134.298 254.059 121.975 261.361 108.414 263.082C107.974 263.138 107.538 263.189 107.098 263.228C106.91 263.245 106.722 263.266 106.534 263.279C102.594 263.617 98.6275 263.519 94.7079 262.988C83.7573 261.541 73.093 257.051 63.4925 251.392C41.0487 238.161 22.8476 217.825 11.7816 194.274C9.88135 190.237 8.19421 186.104 6.72718 181.89C2.62548 170.206 0.366657 157.952 0.0320438 145.571C-1.00619 102.612 23.3603 59.512 61.6169 40.083C99.8777 20.6541 150.209 27.079 181.065 56.9266C199.783 75.033 210.614 99.5685 224.701 121.489C238.788 143.405 258.809 164.34 284.632 167.534C297.787 169.16 311.554 166.014 324.162 170.106C331.143 172.375 337.099 176.715 341.897 182.246C345.123 185.998 347.823 190.175 349.921 194.659C351.459 197.901 352.708 201.273 353.651 204.735C353.827 205.373 353.989 206.011 354.147 206.648C360.428 232.348 350.391 259.289 329.383 275.324Z" fill="#CDE0F3"/>
<path d="M119.275 228.8H79.1129C73.0958 228.8 68.2179 233.687 68.2179 239.715V239.715C68.2179 245.743 73.0958 250.63 79.1129 250.63H119.275C125.292 250.63 130.17 245.743 130.17 239.715C130.17 233.687 125.292 228.8 119.275 228.8Z" fill="#3F3D56"/>
<path d="M107.098 245.065V263.227C102.973 263.627 98.8148 263.547 94.7078 262.988V245.065H107.098Z" fill="#3F3D56"/>
<path d="M148.807 251.743C148.47 251.79 148.136 251.837 147.799 251.893C134.297 254.059 121.975 261.361 108.414 263.082C107.974 263.137 107.538 263.189 107.098 263.227C106.91 263.244 106.722 263.266 106.534 263.279C103.223 260.03 99.9118 256.571 96.8014 252.988C95.1137 251.049 93.4816 249.072 91.9477 247.069C87.9657 241.898 84.5903 236.581 82.3601 231.359C82.5865 228.855 81.0313 223.064 80.2879 218.629L80.2836 218.625C79.9674 216.763 79.7965 215.145 79.9546 214.105C80.8604 208.104 85.7525 208.793 87.2564 202.911C88.6131 201.783 90.0576 200.766 91.576 199.868C91.8281 199.718 92.0844 199.568 92.3493 199.419L108.671 188.118L114.908 194.248L124.402 203.579L134.69 213.685L125.957 222.524C125.957 222.524 133.255 230.953 141.787 242.189C144.077 245.207 146.457 248.43 148.807 251.743Z" fill="#2F2E41"/>
<path d="M289.537 245.065V297.488C285.509 298.75 281.353 299.555 277.147 299.89V245.065H289.537Z" fill="#3F3D56"/>
<path d="M305.559 240.785H265.397C259.38 240.785 254.502 245.672 254.502 251.7V251.7C254.502 257.729 259.38 262.615 265.397 262.615H305.559C311.576 262.615 316.454 257.729 316.454 251.7C316.454 245.672 311.576 240.785 305.559 240.785Z" fill="#3F3D56"/>
<path d="M207.863 268.933C205.705 267.623 203.51 266.344 201.279 265.094C201.005 264.944 200.732 264.79 200.458 264.64L201.928 264.011L205.893 262.303L205.931 262.286L205.974 262.431L207.863 268.933Z" fill="#FFB6B6"/>
<path d="M214.002 272.743C213.297 272.294 212.597 271.853 211.892 271.416H211.887C210.751 270.701 209.611 269.997 208.469 269.302C208.268 269.178 208.068 269.058 207.863 268.934C205.705 267.624 203.51 266.344 201.279 265.094C201.005 264.944 200.732 264.79 200.458 264.64C196.14 262.241 191.702 260.065 187.162 258.121C184.18 256.863 181.159 255.728 178.108 254.761H178.104L175.707 250.742L164.919 232.64L162.548 228.663C162.548 228.663 154.46 231.06 143.014 233.359C138.848 234.198 134.242 235.02 129.41 235.713C124.244 236.449 118.826 237.036 113.443 237.318C110.875 237.455 108.316 237.524 105.795 237.502C99.2795 237.459 93.0202 236.847 87.5385 235.392C85.7098 233.671 80.1982 231.33 76.2503 229.185H76.2461C74.5883 228.286 73.2125 227.426 72.4905 226.66C68.329 222.251 71.8838 218.814 68.1837 214.002C68.1339 212.237 68.2239 210.471 68.4529 208.72C68.4913 208.429 68.5298 208.134 68.5768 207.834L69.7432 187.99L78.408 186.843L91.5931 185.097L105.876 183.205L107.449 195.541C107.449 195.541 118.57 194.976 132.661 195.164C155.293 195.472 185.577 197.732 189.679 207.432C190.063 208.344 190.448 209.264 190.832 210.184C191.746 212.384 192.652 214.596 193.549 216.819C196.801 224.866 199.903 232.991 202.736 240.67C204.496 245.447 206.154 250.052 207.679 254.363C208.905 257.83 210.042 261.109 211.08 264.127C212.028 266.883 212.887 269.422 213.652 271.699C213.772 272.054 213.887 272.405 214.002 272.743Z" fill="#2F2E41"/>
<path d="M134.295 152.51L106.927 129.224L124.733 111.17L137.155 131.555L183.203 140.701C184.587 139.657 186.245 139.04 187.974 138.923C189.703 138.807 191.428 139.197 192.94 140.046C194.451 140.895 195.684 142.167 196.486 143.705C197.289 145.244 197.627 146.983 197.461 148.711C197.294 150.439 196.628 152.081 195.546 153.437C194.464 154.793 193.011 155.804 191.365 156.347C189.719 156.89 187.951 156.941 186.276 156.495C184.602 156.048 183.093 155.124 181.934 153.833L134.295 152.51Z" fill="#A0616A"/>
<path d="M82.7398 98.6203C79.5769 108.929 109.7 133.515 109.7 133.515C110.034 131.04 127.113 152.38 128.275 150.447C131.577 144.955 135.211 131.377 139.023 129.642C141.203 128.649 128.696 114.856 128.696 114.856C128.696 114.856 122.316 106.399 113.892 95.6816C111.567 92.6074 108.503 90.1725 104.985 88.6037C101.468 87.0349 97.6115 86.3832 93.7751 86.7093C93.7751 86.7093 85.9027 88.3119 82.7398 98.6203Z" fill="#3F3D56"/>
<path d="M96.0581 75.7998C106.281 75.7998 114.569 67.497 114.569 57.2551C114.569 47.0132 106.281 38.7104 96.0581 38.7104C85.835 38.7104 77.5476 47.0132 77.5476 57.2551C77.5476 67.497 85.835 75.7998 96.0581 75.7998Z" fill="#A0616A"/>
<path d="M105.313 88.0562C109.301 90.4314 111.687 94.7954 113.056 99.2362C115.591 107.458 117.117 115.958 117.601 124.55L119.047 150.271L136.96 205.038C121.435 218.198 63.0795 208.029 63.0795 208.029C63.0795 208.029 61.2881 207.431 63.0795 205.636C64.8708 203.841 66.6147 205.431 64.8234 203.637C63.0321 201.842 64.2669 203.841 64.864 202.047C65.4612 200.252 64.864 201.449 64.2669 200.85C63.6698 200.252 68.8895 194.868 68.8895 194.868L64.1126 163.431L58.1415 100.02C65.3069 91.0472 79.7173 85.7576 79.7173 85.7576L83.4408 79.043L102.058 80.5351L105.313 88.0562Z" fill="#3F3D56"/>
<path d="M111.317 47.4024C112.756 48.4774 113.822 49.9774 114.365 51.6912C114.573 48.8905 114.587 46.0786 114.404 43.2761C114.186 41.3067 112.802 40.8637 111.2 40.3504C109.753 39.8867 108.116 39.3629 107.675 37.4511C101.857 31.7801 91.7278 32.0661 84.7957 34.0442C80.9814 35.1327 78.7865 36.5312 78.5902 37.3505L78.5495 37.5191L78.3946 37.5967C75.4543 39.0696 74.882 43.7205 74.9198 47.3627C74.9914 54.2249 77.3564 62.0185 78.6887 62.6517C78.7593 62.6852 78.7771 62.6721 78.8076 62.6466C80.8137 61.0404 83.2612 62.7686 84.3368 63.7081C84.9712 59.4432 87.0139 55.5142 90.1386 52.5488C93.2633 49.5833 97.2898 47.7524 101.575 47.3485C102.974 47.213 104.363 46.9798 105.73 46.6506C106.423 46.4708 107.136 46.3771 107.852 46.3715C109.085 46.3528 110.294 46.7125 111.317 47.4024Z" fill="#2F2E41"/>
<path d="M87.9931 180.45L82.3307 177.545C82.0274 177.328 81.8119 177.009 81.7236 176.647C81.6354 176.284 81.6802 175.902 81.8501 175.57C82.0199 175.237 82.3033 174.978 82.6485 174.837C82.9938 174.697 83.3779 174.686 83.7306 174.806L89.3929 177.712C89.6963 177.928 89.9118 178.247 90.0001 178.609C90.0883 178.972 90.0434 179.354 89.8736 179.687C89.7038 180.019 89.4204 180.279 89.0751 180.419C88.7299 180.559 88.3458 180.57 87.9931 180.45Z" fill="#044990"/>
<path d="M68.9363 172.666L59.6216 137.925L84.513 133.205L83.1745 157.051L115.88 190.788C117.611 190.718 119.326 191.153 120.814 192.041C122.303 192.93 123.502 194.233 124.264 195.792C125.026 197.351 125.319 199.099 125.107 200.822C124.895 202.545 124.187 204.169 123.07 205.496C121.952 206.823 120.474 207.795 118.814 208.295C117.154 208.795 115.386 208.8 113.723 208.31C112.061 207.819 110.577 206.855 109.452 205.535C108.327 204.214 107.61 202.594 107.388 200.872L68.9363 172.666Z" fill="#A0616A"/>
<path d="M57.0744 98.9733C48.6253 105.656 59.4697 143.034 59.4697 143.034C61.1487 141.188 63.0997 168.471 65.152 167.542C70.9846 164.902 81.6751 155.797 85.7965 156.539C88.1534 156.964 85.6841 138.493 85.6841 138.493C85.6841 138.493 85.2299 127.903 84.3763 114.288C84.2062 110.434 83.0657 106.687 81.061 103.393C79.0563 100.1 76.2524 97.3688 72.9106 95.4533C72.9106 95.4533 65.5234 92.2909 57.0744 98.9733Z" fill="#3F3D56"/>
<path d="M350.164 197.039L11.8655 196.57C9.96437 191.658 8.27643 186.627 6.80872 181.498L342.136 181.93C345.364 186.498 348.064 191.581 350.164 197.039Z" fill="#3F3D56"/>
<path d="M242.223 284.471C240.475 285.319 238.712 286.136 236.933 286.924C233.977 285.242 231.054 283.482 228.149 281.685L238.924 276.942L242.223 284.471Z" fill="#FFB6B6"/>
<path d="M320.787 225.487C319.035 227.841 317.228 230.148 315.365 232.408C313.647 234.493 311.884 236.537 310.075 238.542C309.328 239.372 308.571 240.199 307.798 241.016C306.375 242.544 304.921 244.047 303.436 245.523C300.761 246.367 295.343 247.852 289.537 249.239C285.311 250.245 280.881 251.199 277.147 251.807C275.056 252.183 272.941 252.409 270.819 252.484C268.298 252.505 265.739 252.436 263.171 252.299C260.274 252.145 257.373 251.906 254.506 251.597C247.051 250.814 239.83 249.594 233.601 248.34C231.319 247.886 229.174 247.424 227.2 246.975C223.462 246.131 220.334 245.344 218.07 244.744C215.519 244.077 214.066 243.644 214.066 243.644L207.679 254.363L204.363 259.923L201.928 264.011L201.279 265.094C201.005 264.944 200.732 264.79 200.458 264.64C196.14 262.241 191.702 260.065 187.162 258.121C184.18 256.862 181.159 255.728 178.108 254.761H178.104C176.938 254.393 175.767 254.046 174.592 253.729C174.96 252.74 175.331 251.744 175.707 250.741C176.408 248.871 177.123 246.983 177.852 245.078C179.429 240.952 181.061 236.766 182.74 232.601C184.116 229.181 185.517 225.773 186.936 222.413C187.589 220.864 188.918 219.503 190.777 218.308C191.665 217.747 192.591 217.249 193.549 216.819C198.869 214.392 206.705 212.812 215.34 211.798C216.053 211.716 216.771 211.635 217.493 211.558C224.641 210.805 232.225 210.415 239.317 210.235C242.868 210.146 246.294 210.111 249.482 210.107C250.511 210.107 251.513 210.11 252.485 210.116H252.49C255.117 210.128 257.535 210.167 259.663 210.21C260.078 210.218 260.479 210.231 260.872 210.24H260.877C261.142 210.244 261.402 210.253 261.659 210.257C266.311 210.377 269.165 210.522 269.165 210.522L270.272 201.824L270.498 200.069L270.712 198.4V198.396L270.738 198.186L270.913 198.182L273.989 198.122L299.847 197.617L313.972 197.338L311.733 206.952L308.037 222.816C308.413 225.324 320.915 223.359 320.787 225.487Z" fill="#2F2E41"/>
<path d="M245.41 282.888C244.355 283.427 243.291 283.958 242.223 284.471C240.475 285.319 238.712 286.137 236.933 286.924C233.976 285.242 231.054 283.483 228.149 281.685C223.406 278.748 218.711 275.709 214.002 272.743C213.297 272.294 212.597 271.853 211.892 271.416H211.887C209.948 268.531 207.969 265.526 205.974 262.431C205.944 262.389 205.918 262.346 205.893 262.303C205.38 261.515 204.87 260.722 204.363 259.923C201.172 254.915 197.963 249.693 194.848 244.359L202.735 240.67L217.399 233.812L219.928 232.631L227.2 246.975L233.686 259.769L235.13 262.615L245.41 282.888Z" fill="#2F2E41"/>
<path d="M247.62 214.023L285.005 177.903L295.367 148.509L280.083 141.851C272.232 149.385 263.746 172.851 263.746 172.851L238.02 205.642C237.819 205.71 237.619 205.783 237.422 205.871C236.263 206.383 235.256 207.185 234.497 208.201C233.739 209.217 233.254 210.412 233.091 211.67C232.928 212.928 233.092 214.207 233.567 215.384C234.041 216.56 234.811 217.594 235.801 218.385C236.791 219.176 237.967 219.698 239.218 219.901C240.468 220.103 241.749 219.979 242.937 219.541C244.126 219.102 245.181 218.364 246.001 217.397C246.821 216.431 247.379 215.268 247.62 214.023Z" fill="#FFB8B8"/>
<path d="M275.782 145.132L295.169 151.298L295.242 151.286C302.458 150.075 308.446 138.268 312.198 128.577C313.432 125.38 313.409 121.833 312.133 118.653C310.857 115.472 308.424 112.896 305.324 111.444C303.031 110.389 300.488 109.998 297.984 110.314C295.48 110.631 293.114 111.643 291.154 113.236L281.199 121.385L275.782 145.132Z" fill="#044990"/>
<path d="M320.709 225.92L320.822 225.769C326.871 217.732 318.598 197.829 317.347 194.943L322.971 193.274L321.991 182.545L321.519 177.762L325.892 173.601L325.907 173.495L328.914 152.053L332.849 137.862C334.332 132.497 334.363 126.833 332.94 121.452C331.516 116.071 328.689 111.166 324.748 107.242L316.704 99.2402L307.066 84.1274L290.908 83.7095L285.097 94.0506C279.694 95.1554 274.848 98.1244 271.405 102.44C267.962 106.756 266.139 112.146 266.254 117.67L266.801 145.2L261.003 179.309L260.84 185.505L255.15 191.521L256.202 197.604L251.945 199.303L249.862 207.945C249.066 208.943 243.813 215.595 243.766 217.449C243.759 217.727 243.957 218.002 244.389 218.312C247.789 220.749 266.793 226.03 275.347 222.855C284.457 219.476 320.164 225.822 320.523 225.887L320.709 225.92Z" fill="#044990"/>
<path d="M297.576 79.0768C309.399 79.0768 318.983 69.4749 318.983 57.6302C318.983 45.7856 309.399 36.1836 297.576 36.1836C285.753 36.1836 276.169 45.7856 276.169 57.6302C276.169 69.4749 285.753 79.0768 297.576 79.0768Z" fill="#FFB8B8"/>
<path d="M294.964 79.3637C298.279 79.4154 301.593 79.1835 304.868 78.6702C308.115 78.0087 315.379 72.6762 317.404 69.4673C318.908 67.0832 319.87 63.3601 320.412 60.6569C321.142 57.0796 321.114 53.3886 320.33 49.8228C319.546 46.2571 318.023 42.896 315.86 39.9574C315.029 38.7282 313.881 37.747 312.539 37.1176C312.42 37.071 312.298 37.0297 312.174 36.9944C310.218 36.4788 308.461 35.3893 307.127 33.8658C306.869 33.5577 306.588 33.2686 306.288 33.0008C304.781 31.7267 302.995 30.8279 301.075 30.378C297.975 29.547 293.49 30.3719 287.743 32.8322C284.856 34.0683 281.699 33.6209 279.27 33.0931C279.134 33.0667 278.993 33.0765 278.862 33.1216C278.73 33.1666 278.613 33.2454 278.522 33.3499C277.488 34.3218 276.126 34.8659 274.708 34.8727C273.84 34.9109 272.929 36.1152 271.828 37.6857C271.579 38.0422 271.287 38.4583 271.077 38.7114L271.049 38.2252L270.558 38.7675C269.786 39.62 269.241 40.6543 268.976 41.7741C268.71 42.894 268.732 44.0629 269.039 45.1721C269.346 46.2813 269.928 47.2947 270.731 48.1179C271.534 48.941 272.532 49.5473 273.631 49.8801C274.505 50.1129 275.399 50.2557 276.302 50.3064C276.848 50.3557 277.414 50.4066 277.955 50.5008C279.694 50.8575 281.311 51.6598 282.648 52.8295C283.985 53.9991 284.996 55.496 285.583 57.1741C285.722 57.562 285.948 57.9127 286.243 58.1992C286.539 58.4858 286.896 58.7004 287.288 58.8266C287.679 58.9528 288.095 58.9871 288.502 58.927C288.909 58.8668 289.296 58.7138 289.635 58.4798C290.199 58.0395 290.861 57.7425 291.565 57.6141C292.269 57.4857 292.993 57.5298 293.676 57.7425C294.266 58.0713 294.726 58.5935 294.978 59.2214C295.283 59.9209 295.79 60.5134 296.434 60.9232C298.634 62.0596 298.785 67.0943 297.995 71.2913C297.233 75.3369 295.728 78.2635 294.334 78.4082C293.26 78.5194 293.138 78.5958 293.06 78.786L292.99 78.9562L293.111 79.1154C293.704 79.3307 294.336 79.4154 294.964 79.3637Z" fill="#2F2E41"/>
<path d="M281.098 138.648L272.844 122.162C260.863 122.982 237.085 136.86 237.085 136.86L192.095 146.416C190.762 145.903 189.318 145.75 187.908 145.974C186.498 146.198 185.171 146.79 184.062 147.69C182.952 148.591 182.099 149.768 181.589 151.104C181.078 152.44 180.928 153.887 181.153 155.3C181.377 156.712 181.97 158.04 182.87 159.151C183.77 160.261 184.947 161.114 186.281 161.624C187.615 162.134 189.059 162.283 190.469 162.056C191.879 161.829 193.204 161.234 194.311 160.331L251.541 156.221L281.098 138.648Z" fill="#FFB8B8"/>
<path d="M277.769 141.355L299.326 125.306L303.123 111.597C303.859 108.903 303.827 106.056 303.033 103.379C302.239 100.702 300.713 98.3003 298.628 96.4463C295.784 93.9522 292.102 92.6328 288.324 92.7548C284.547 92.8769 280.957 94.4314 278.28 97.104C270.168 105.216 260.915 116.533 262.903 124.38L262.923 124.46L277.769 141.355Z" fill="#044990"/>
<path d="M251.084 184.283H193.404V191.988H251.084V184.283Z" fill="white"/>
<path d="M103.68 184.283H46.0005V191.988H103.68V184.283Z" fill="white"/>
<path d="M110.416 147.23V183.916C110.416 184.383 110.601 184.831 110.931 185.162C111.261 185.493 111.709 185.678 112.175 185.679H166.439C166.906 185.678 167.353 185.493 167.683 185.162C168.013 184.831 168.199 184.383 168.199 183.916V147.23C168.198 146.763 168.012 146.316 167.682 145.986C167.352 145.656 166.905 145.47 166.439 145.469H112.175C111.709 145.47 111.262 145.656 110.932 145.986C110.602 146.316 110.417 146.763 110.416 147.23Z" fill="#3F3D56"/>
<path d="M111.688 147.687V183.463C111.689 183.713 111.788 183.952 111.964 184.129C112.141 184.306 112.38 184.405 112.629 184.405H165.987C166.237 184.405 166.476 184.306 166.652 184.129C166.828 183.952 166.927 183.713 166.928 183.463V147.687C166.928 147.437 166.829 147.197 166.652 147.02C166.476 146.843 166.237 146.743 165.987 146.743H112.629C112.379 146.743 112.14 146.843 111.964 147.02C111.788 147.197 111.689 147.437 111.688 147.687Z" fill="#044990"/>
<path d="M109.281 191.07C109.38 191.195 109.506 191.296 109.65 191.365C109.794 191.434 109.951 191.469 110.111 191.468H168.214C168.373 191.468 168.53 191.433 168.674 191.364C168.817 191.295 168.943 191.196 169.043 191.072C169.144 190.948 169.215 190.804 169.252 190.649C169.29 190.495 169.292 190.333 169.26 190.178L168.358 185.885C168.32 185.71 168.24 185.548 168.123 185.412C168.007 185.276 167.859 185.171 167.692 185.107C167.571 185.06 167.442 185.036 167.312 185.036H111.009C110.879 185.036 110.751 185.06 110.63 185.107C110.463 185.171 110.315 185.276 110.198 185.412C110.082 185.548 110.002 185.71 109.964 185.885L109.062 190.178C109.03 190.333 109.033 190.494 109.071 190.649C109.109 190.803 109.18 190.947 109.281 191.07Z" fill="#2F2E41"/>
<path d="M165.319 186.884H166.691C166.807 186.884 166.9 186.791 166.9 186.675V186.018C166.9 185.902 166.807 185.809 166.691 185.809H165.319C165.204 185.809 165.11 185.902 165.11 186.018V186.675C165.11 186.791 165.204 186.884 165.319 186.884Z" fill="#3F3D56"/>
<path d="M161.74 186.884H163.112C163.227 186.884 163.321 186.791 163.321 186.675V186.018C163.321 185.902 163.227 185.809 163.112 185.809H161.74C161.625 185.809 161.531 185.902 161.531 186.018V186.675C161.531 186.791 161.625 186.884 161.74 186.884Z" fill="#3F3D56"/>
<path d="M158.161 186.884H159.533C159.648 186.884 159.742 186.791 159.742 186.675V186.018C159.742 185.902 159.648 185.809 159.533 185.809H158.161C158.045 185.809 157.952 185.902 157.952 186.018V186.675C157.952 186.791 158.045 186.884 158.161 186.884Z" fill="#3F3D56"/>
<path d="M154.581 186.884H155.954C156.069 186.884 156.162 186.791 156.162 186.675V186.018C156.162 185.902 156.069 185.809 155.954 185.809H154.581C154.466 185.809 154.373 185.902 154.373 186.018V186.675C154.373 186.791 154.466 186.884 154.581 186.884Z" fill="#3F3D56"/>
<path d="M151.002 186.884H152.375C152.49 186.884 152.583 186.791 152.583 186.675V186.018C152.583 185.902 152.49 185.809 152.375 185.809H151.002C150.887 185.809 150.794 185.902 150.794 186.018V186.675C150.794 186.791 150.887 186.884 151.002 186.884Z" fill="#3F3D56"/>
<path d="M147.423 186.884H148.796C148.911 186.884 149.004 186.791 149.004 186.675V186.018C149.004 185.902 148.911 185.809 148.796 185.809H147.423C147.308 185.809 147.215 185.902 147.215 186.018V186.675C147.215 186.791 147.308 186.884 147.423 186.884Z" fill="#3F3D56"/>
<path d="M143.844 186.884H145.217C145.332 186.884 145.425 186.791 145.425 186.675V186.018C145.425 185.902 145.332 185.809 145.217 185.809H143.844C143.729 185.809 143.636 185.902 143.636 186.018V186.675C143.636 186.791 143.729 186.884 143.844 186.884Z" fill="#3F3D56"/>
<path d="M140.265 186.884H141.637C141.753 186.884 141.846 186.791 141.846 186.675V186.018C141.846 185.902 141.753 185.809 141.637 185.809H140.265C140.15 185.809 140.056 185.902 140.056 186.018V186.675C140.056 186.791 140.15 186.884 140.265 186.884Z" fill="#3F3D56"/>
<path d="M136.686 186.884H138.058C138.173 186.884 138.267 186.791 138.267 186.675V186.018C138.267 185.902 138.173 185.809 138.058 185.809H136.686C136.571 185.809 136.477 185.902 136.477 186.018V186.675C136.477 186.791 136.571 186.884 136.686 186.884Z" fill="#3F3D56"/>
<path d="M133.107 186.884H134.479C134.594 186.884 134.688 186.791 134.688 186.675V186.018C134.688 185.902 134.594 185.809 134.479 185.809H133.107C132.992 185.809 132.898 185.902 132.898 186.018V186.675C132.898 186.791 132.992 186.884 133.107 186.884Z" fill="#3F3D56"/>
<path d="M129.528 186.884H130.9C131.015 186.884 131.109 186.791 131.109 186.675V186.018C131.109 185.902 131.015 185.809 130.9 185.809H129.528C129.412 185.809 129.319 185.902 129.319 186.018V186.675C129.319 186.791 129.412 186.884 129.528 186.884Z" fill="#3F3D56"/>
<path d="M125.949 186.884H127.321C127.436 186.884 127.53 186.791 127.53 186.675V186.018C127.53 185.902 127.436 185.809 127.321 185.809H125.949C125.833 185.809 125.74 185.902 125.74 186.018V186.675C125.74 186.791 125.833 186.884 125.949 186.884Z" fill="#3F3D56"/>
<path d="M122.369 186.884H123.742C123.857 186.884 123.95 186.791 123.95 186.675V186.018C123.95 185.902 123.857 185.809 123.742 185.809H122.369C122.254 185.809 122.161 185.902 122.161 186.018V186.675C122.161 186.791 122.254 186.884 122.369 186.884Z" fill="#3F3D56"/>
<path d="M118.79 186.884H120.163C120.278 186.884 120.371 186.791 120.371 186.675V186.018C120.371 185.902 120.278 185.809 120.163 185.809H118.79C118.675 185.809 118.582 185.902 118.582 186.018V186.675C118.582 186.791 118.675 186.884 118.79 186.884Z" fill="#3F3D56"/>
<path d="M115.211 186.884H116.584C116.699 186.884 116.792 186.791 116.792 186.675V186.018C116.792 185.902 116.699 185.809 116.584 185.809H115.211C115.096 185.809 115.003 185.902 115.003 186.018V186.675C115.003 186.791 115.096 186.884 115.211 186.884Z" fill="#3F3D56"/>
<path d="M111.632 186.884H113.004C113.12 186.884 113.213 186.791 113.213 186.675V186.018C113.213 185.902 113.12 185.809 113.004 185.809H111.632C111.517 185.809 111.423 185.902 111.423 186.018V186.675C111.423 186.791 111.517 186.884 111.632 186.884Z" fill="#3F3D56"/>
<path d="M165.361 188.677H166.734C166.849 188.677 166.942 188.584 166.942 188.468V187.81C166.942 187.695 166.849 187.602 166.734 187.602H165.361C165.246 187.602 165.153 187.695 165.153 187.81V188.468C165.153 188.584 165.246 188.677 165.361 188.677Z" fill="#3F3D56"/>
<path d="M161.782 188.677H163.155C163.27 188.677 163.363 188.584 163.363 188.468V187.81C163.363 187.695 163.27 187.602 163.155 187.602H161.782C161.667 187.602 161.574 187.695 161.574 187.81V188.468C161.574 188.584 161.667 188.677 161.782 188.677Z" fill="#3F3D56"/>
<path d="M158.203 188.677H159.575C159.691 188.677 159.784 188.584 159.784 188.468V187.81C159.784 187.695 159.691 187.602 159.575 187.602H158.203C158.088 187.602 157.994 187.695 157.994 187.81V188.468C157.994 188.584 158.088 188.677 158.203 188.677Z" fill="#3F3D56"/>
<path d="M154.624 188.677H155.996C156.111 188.677 156.205 188.584 156.205 188.468V187.81C156.205 187.695 156.111 187.602 155.996 187.602H154.624C154.509 187.602 154.415 187.695 154.415 187.81V188.468C154.415 188.584 154.509 188.677 154.624 188.677Z" fill="#3F3D56"/>
<path d="M151.045 188.677H152.417C152.532 188.677 152.626 188.584 152.626 188.468V187.81C152.626 187.695 152.532 187.602 152.417 187.602H151.045C150.93 187.602 150.836 187.695 150.836 187.81V188.468C150.836 188.584 150.93 188.677 151.045 188.677Z" fill="#3F3D56"/>
<path d="M147.466 188.677H148.838C148.953 188.677 149.047 188.584 149.047 188.468V187.81C149.047 187.695 148.953 187.602 148.838 187.602H147.466C147.35 187.602 147.257 187.695 147.257 187.81V188.468C147.257 188.584 147.35 188.677 147.466 188.677Z" fill="#3F3D56"/>
<path d="M143.886 188.677H145.259C145.374 188.677 145.467 188.584 145.467 188.468V187.81C145.467 187.695 145.374 187.602 145.259 187.602H143.886C143.771 187.602 143.678 187.695 143.678 187.81V188.468C143.678 188.584 143.771 188.677 143.886 188.677Z" fill="#3F3D56"/>
<path d="M140.307 188.677H141.68C141.795 188.677 141.888 188.584 141.888 188.468V187.81C141.888 187.695 141.795 187.602 141.68 187.602H140.307C140.192 187.602 140.099 187.695 140.099 187.81V188.468C140.099 188.584 140.192 188.677 140.307 188.677Z" fill="#3F3D56"/>
<path d="M136.728 188.677H138.101C138.216 188.677 138.309 188.584 138.309 188.468V187.81C138.309 187.695 138.216 187.602 138.101 187.602H136.728C136.613 187.602 136.52 187.695 136.52 187.81V188.468C136.52 188.584 136.613 188.677 136.728 188.677Z" fill="#3F3D56"/>
<path d="M133.149 188.677H134.522C134.637 188.677 134.73 188.584 134.73 188.468V187.81C134.73 187.695 134.637 187.602 134.522 187.602H133.149C133.034 187.602 132.941 187.695 132.941 187.81V188.468C132.941 188.584 133.034 188.677 133.149 188.677Z" fill="#3F3D56"/>
<path d="M129.57 188.677H130.942C131.057 188.677 131.151 188.584 131.151 188.468V187.81C131.151 187.695 131.057 187.602 130.942 187.602H129.57C129.455 187.602 129.361 187.695 129.361 187.81V188.468C129.361 188.584 129.455 188.677 129.57 188.677Z" fill="#3F3D56"/>
<path d="M125.991 188.677H127.363C127.478 188.677 127.572 188.584 127.572 188.468V187.81C127.572 187.695 127.478 187.602 127.363 187.602H125.991C125.876 187.602 125.782 187.695 125.782 187.81V188.468C125.782 188.584 125.876 188.677 125.991 188.677Z" fill="#3F3D56"/>
<path d="M122.412 188.677H123.784C123.899 188.677 123.993 188.584 123.993 188.468V187.81C123.993 187.695 123.899 187.602 123.784 187.602H122.412C122.296 187.602 122.203 187.695 122.203 187.81V188.468C122.203 188.584 122.296 188.677 122.412 188.677Z" fill="#3F3D56"/>
<path d="M118.833 188.677H120.205C120.32 188.677 120.414 188.584 120.414 188.468V187.81C120.414 187.695 120.32 187.602 120.205 187.602H118.833C118.717 187.602 118.624 187.695 118.624 187.81V188.468C118.624 188.584 118.717 188.677 118.833 188.677Z" fill="#3F3D56"/>
<path d="M115.253 188.677H116.626C116.741 188.677 116.834 188.584 116.834 188.468V187.81C116.834 187.695 116.741 187.602 116.626 187.602H115.253C115.138 187.602 115.045 187.695 115.045 187.81V188.468C115.045 188.584 115.138 188.677 115.253 188.677Z" fill="#3F3D56"/>
<path d="M111.674 188.677H113.047C113.162 188.677 113.255 188.584 113.255 188.468V187.81C113.255 187.695 113.162 187.602 113.047 187.602H111.674C111.559 187.602 111.466 187.695 111.466 187.81V188.468C111.466 188.584 111.559 188.677 111.674 188.677Z" fill="#3F3D56"/>
<path d="M135.654 190.829H149.554C149.669 190.829 149.762 190.735 149.762 190.62V189.962C149.762 189.846 149.669 189.753 149.554 189.753H135.654C135.539 189.753 135.446 189.846 135.446 189.962V190.62C135.446 190.735 135.539 190.829 135.654 190.829Z" fill="#3F3D56"/>
</svg>
