<svg width="24" height="24" viewBox="0 0 24 24" fill="none" xmlns="http://www.w3.org/2000/svg">
<path d="M17.5 1H6.5C3.46243 1 1 3.46243 1 6.5V17.5C1 20.5376 3.46243 23 6.5 23H17.5C20.5376 23 23 20.5376 23 17.5V6.5C23 3.46243 20.5376 1 17.5 1Z" stroke="white" stroke-width="2" stroke-linecap="round" stroke-linejoin="round"/>
<path d="M16.4001 11.3073C16.5359 12.2228 16.3795 13.1578 15.9533 13.9792C15.527 14.8007 14.8526 15.4669 14.0259 15.883C13.1992 16.2991 12.2624 16.4439 11.3487 16.2969C10.435 16.1498 9.59085 15.7184 8.93644 15.064C8.28203 14.4096 7.85062 13.5655 7.70359 12.6518C7.55656 11.738 7.70139 10.8012 8.11748 9.97454C8.53356 9.14787 9.19972 8.47345 10.0212 8.0472C10.8427 7.62095 11.7776 7.46458 12.6931 7.60033C13.6269 7.7388 14.4915 8.17394 15.159 8.84147C15.8265 9.509 16.2616 10.3735 16.4001 11.3073Z" stroke="white" stroke-width="2" stroke-linecap="round" stroke-linejoin="round"/>
<path d="M18.0498 5.9502H18.0608" stroke="white" stroke-width="2" stroke-linecap="round" stroke-linejoin="round"/>
</svg>
