<svg width="338" height="329" viewBox="0 0 338 329" fill="none" xmlns="http://www.w3.org/2000/svg">
<g clip-path="url(#clip0_94_17)">
<path d="M237.203 327.89C236.85 328.263 236.482 328.631 236.11 329H193.666C193.317 328.641 192.973 328.272 192.628 327.89C192.614 327.876 192.6 327.857 192.586 327.843C187.975 322.72 185.072 315.273 183.262 307.42C183.146 306.944 183.043 306.464 182.941 305.979C182.466 303.772 182.08 301.541 181.764 299.33C181.708 298.947 181.652 298.565 181.605 298.182C181.177 295.004 180.889 291.878 180.703 288.943C180.68 288.566 180.656 288.197 180.633 287.828C180.292 281.986 180.289 276.128 180.624 270.285C180.624 270.285 180.68 270.285 180.787 270.289C181.098 270.303 181.847 270.336 182.95 270.401C185.988 270.588 191.721 271.055 198.463 272.156C198.831 272.216 199.203 272.282 199.575 272.347C205.278 273.292 210.903 274.658 216.405 276.434C216.749 276.551 217.089 276.668 217.433 276.784L217.438 276.808L221.658 298.042L223.408 279.14C224.799 279.77 226.153 280.442 227.451 281.161C227.814 281.361 228.168 281.562 228.516 281.767C231.484 283.454 234.178 285.584 236.506 288.085C250.348 303.468 247.384 317.219 237.203 327.89Z" fill="#98C693"/>
<path d="M219.466 300.964L220.202 301.781C228.707 311.326 233.783 320.187 235.347 328.245C235.372 328.362 235.389 328.479 235.414 328.596L234.87 328.7L234.345 328.792C232.749 320.006 226.807 310.924 219.391 302.596C219.154 302.326 218.914 302.051 218.666 301.783C215.496 298.286 212.087 294.93 208.64 291.793C208.375 291.548 208.103 291.302 207.831 291.057C203.26 286.939 198.661 283.214 194.56 280.074C194.271 279.851 193.978 279.631 193.689 279.416C186.726 274.13 181.323 270.626 180.119 269.858C179.974 269.761 179.892 269.711 179.873 269.698L180.158 269.242L180.158 269.234L180.448 268.774C180.466 268.787 180.742 268.956 181.242 269.282C183.116 270.494 188.154 273.828 194.421 278.569C194.703 278.785 194.996 279.004 195.285 279.227C198.615 281.772 202.258 284.688 205.937 287.879C206.863 288.68 207.765 289.479 208.644 290.276C208.921 290.518 209.193 290.764 209.458 291.009C213.184 294.4 216.52 297.718 219.466 300.964Z" fill="white"/>
<path d="M198.863 271.25C198.738 271.554 198.603 271.857 198.463 272.156C197.4 274.462 196.041 276.619 194.42 278.571C194.182 278.851 193.941 279.136 193.689 279.416C193.01 280.167 192.287 280.893 191.521 281.595C188.386 284.441 184.671 286.568 180.633 287.828C180.503 287.87 180.377 287.912 180.247 287.95C180.27 288.318 180.293 288.682 180.317 289.06C180.447 289.023 180.573 288.985 180.703 288.943C184.987 287.648 188.93 285.414 192.247 282.402C193.058 281.667 193.83 280.89 194.559 280.074C194.81 279.798 195.053 279.514 195.285 279.229C197.019 277.14 198.462 274.825 199.575 272.347C199.706 272.048 199.836 271.75 199.961 271.446C199.589 271.381 199.222 271.316 198.863 271.25Z" fill="white"/>
<path d="M216.596 275.608C216.54 275.884 216.475 276.159 216.405 276.434C215.143 281.679 212.457 286.471 208.644 290.278C208.378 290.544 208.109 290.805 207.83 291.057C207.75 291.136 207.662 291.22 207.578 291.295C204.11 294.435 199.943 296.699 195.425 297.896C190.907 299.094 186.169 299.192 181.605 298.182C181.498 298.163 181.387 298.135 181.28 298.112C181.336 298.495 181.387 298.882 181.447 299.264C181.554 299.288 181.657 299.311 181.764 299.33C186.443 300.3 191.284 300.152 195.895 298.896C200.506 297.641 204.757 295.313 208.304 292.102C208.416 292 208.532 291.902 208.639 291.794C208.918 291.533 209.188 291.272 209.458 291.01C213.36 287.095 216.12 282.183 217.438 276.808C217.508 276.528 217.573 276.248 217.633 275.968C217.289 275.846 216.945 275.725 216.596 275.608Z" fill="white"/>
<path d="M227.451 280.372C227.455 280.633 227.455 280.899 227.451 281.161C227.373 288.534 224.521 295.607 219.466 300.963C219.206 301.243 218.936 301.513 218.666 301.784C218.373 302.068 218.08 302.353 217.777 302.624C213.097 306.854 207.184 309.464 200.911 310.068C194.639 310.672 188.339 309.238 182.941 305.978C182.848 305.93 182.758 305.877 182.671 305.82C182.783 306.314 182.894 306.8 183.015 307.285C183.099 307.331 183.178 307.378 183.262 307.42C188.816 310.526 195.2 311.811 201.52 311.097C207.84 310.382 213.778 307.703 218.503 303.435C218.806 303.16 219.108 302.885 219.392 302.596C219.671 302.33 219.936 302.059 220.202 301.779C225.328 296.357 228.287 289.235 228.516 281.767C228.526 281.515 228.53 281.263 228.53 281.011C228.177 280.792 227.814 280.582 227.451 280.372Z" fill="white"/>
<path d="M133.385 77.2564H51.5927C50.912 77.2557 50.2595 76.9842 49.7782 76.5016C49.2969 76.0189 49.0261 75.3645 49.0254 74.682V12.4042C49.0261 11.7217 49.2968 11.0673 49.7781 10.5846C50.2594 10.1019 50.912 9.8304 51.5927 9.82959H151.988C152.669 9.8304 153.321 10.1019 153.803 10.5846C154.284 11.0673 154.555 11.7217 154.556 12.4042V56.0267C154.549 61.6552 152.317 67.0514 148.348 71.0314C144.379 75.0113 138.998 77.2501 133.385 77.2564Z" fill="white"/>
<path d="M133.385 77.4901H51.5927C50.8503 77.4892 50.1387 77.1931 49.6138 76.6668C49.0889 76.1404 48.7936 75.4268 48.7927 74.6824V12.4046C48.7936 11.6602 49.0888 10.9465 49.6137 10.4201C50.1386 9.8937 50.8503 9.59757 51.5927 9.59668H151.988C152.731 9.59753 153.442 9.89365 153.967 10.4201C154.492 10.9465 154.787 11.6602 154.788 12.4046V56.0271C154.782 61.7175 152.525 67.1729 148.512 71.1966C144.5 75.2203 139.059 77.4836 133.385 77.4901ZM51.5927 10.5299C51.097 10.5305 50.6219 10.7282 50.2714 11.0797C49.921 11.4311 49.7239 11.9076 49.7233 12.4046V74.6824C49.7239 75.1794 49.921 75.6558 50.2714 76.0073C50.6219 76.3587 51.0971 76.5564 51.5927 76.5569H133.385C138.813 76.5508 144.016 74.3859 147.854 70.5371C151.693 66.6883 153.851 61.4701 153.858 56.0271V12.4046C153.857 11.9076 153.66 11.4311 153.309 11.0797C152.959 10.7282 152.484 10.5305 151.988 10.5299H51.5927Z" fill="#CCCCCC"/>
<path d="M132.142 30.8622H71.4382C70.8809 30.8622 70.3464 30.6402 69.9524 30.2451C69.5583 29.8499 69.3369 29.3139 69.3369 28.7551C69.3369 28.1962 69.5583 27.6603 69.9524 27.2651C70.3464 26.8699 70.8809 26.6479 71.4382 26.6479H132.142C132.699 26.6488 133.233 26.8711 133.626 27.2662C134.02 27.6613 134.241 28.1968 134.241 28.7551C134.241 29.3134 134.02 29.8489 133.626 30.244C133.233 30.639 132.699 30.8614 132.142 30.8622Z" fill="#CCCCCC"/>
<path d="M132.142 45.3779H71.4382C70.8809 45.3779 70.3464 45.1559 69.9524 44.7607C69.5583 44.3655 69.3369 43.8296 69.3369 43.2707C69.3369 42.7119 69.5583 42.1759 69.9524 41.7807C70.3464 41.3856 70.8809 41.1636 71.4382 41.1636H132.142C132.7 41.1636 133.234 41.3856 133.628 41.7807C134.022 42.1759 134.244 42.7119 134.244 43.2707C134.244 43.8296 134.022 44.3655 133.628 44.7607C133.234 45.1559 132.7 45.3779 132.142 45.3779Z" fill="#CCCCCC"/>
<path d="M132.142 60.309H71.4382C70.8809 60.309 70.3464 60.087 69.9524 59.6918C69.5583 59.2967 69.3369 58.7607 69.3369 58.2019C69.3369 57.643 69.5583 57.1071 69.9524 56.7119C70.3464 56.3167 70.8809 56.0947 71.4382 56.0947H132.142C132.7 56.0947 133.234 56.3167 133.628 56.7119C134.022 57.1071 134.244 57.643 134.244 58.2019C134.244 58.7607 134.022 59.2967 133.628 59.6918C133.234 60.087 132.7 60.309 132.142 60.309Z" fill="#CCCCCC"/>
<path d="M151.234 25.1663C158.165 25.1663 163.783 19.5326 163.783 12.5832C163.783 5.63367 158.165 0 151.234 0C144.304 0 138.686 5.63367 138.686 12.5832C138.686 19.5326 144.304 25.1663 151.234 25.1663Z" fill="#044990"/>
<path d="M149.523 19.1323C149.306 19.1323 149.092 19.0817 148.898 18.9845C148.705 18.8873 148.536 18.7462 148.406 18.5723L144.983 13.9951C144.873 13.848 144.793 13.6807 144.747 13.5026C144.702 13.3246 144.692 13.1393 144.718 12.9573C144.743 12.7754 144.805 12.6003 144.898 12.4421C144.992 12.284 145.115 12.1458 145.262 12.0355C145.408 11.9253 145.575 11.845 145.753 11.7994C145.931 11.7538 146.115 11.7437 146.297 11.7697C146.478 11.7957 146.653 11.8573 146.81 11.9509C146.968 12.0446 147.106 12.1685 147.216 12.3155L149.456 15.3099L155.208 6.65748C155.413 6.3486 155.733 6.13417 156.096 6.06137C156.459 5.98856 156.836 6.06335 157.144 6.26927C157.452 6.47519 157.666 6.79538 157.738 7.15941C157.811 7.52343 157.736 7.90146 157.531 8.21034L150.684 18.509C150.56 18.6952 150.394 18.849 150.198 18.9574C150.003 19.0658 149.785 19.1256 149.561 19.1319C149.548 19.1321 149.535 19.1323 149.523 19.1323Z" fill="white"/>
<path d="M103.196 131.347H21.4035C15.7906 131.341 10.4094 129.102 6.44046 125.122C2.47153 121.142 0.238999 115.746 0.232666 110.118V66.4951C0.233465 65.8125 0.504229 65.1581 0.985559 64.6754C1.46689 64.1927 2.11948 63.9212 2.80019 63.9204H103.196C103.876 63.9212 104.529 64.1927 105.01 64.6754C105.491 65.1581 105.762 65.8125 105.763 66.4951V128.773C105.762 129.455 105.491 130.11 105.01 130.592C104.529 131.075 103.876 131.347 103.196 131.347Z" fill="white"/>
<path d="M103.195 131.581H21.4035C15.7289 131.575 10.2886 129.311 6.27607 125.288C2.26353 121.264 0.00645184 115.809 0 110.118V66.4955C0.00084112 65.751 0.296129 65.0373 0.82108 64.5109C1.34603 63.9845 2.05778 63.6883 2.80017 63.6875H103.195C103.938 63.6883 104.65 63.9845 105.175 64.5109C105.7 65.0373 105.995 65.751 105.996 66.4955V128.773C105.995 129.518 105.7 130.231 105.175 130.758C104.65 131.284 103.938 131.58 103.195 131.581ZM2.80017 64.6207C2.30451 64.6213 1.82932 64.819 1.47884 65.1704C1.12835 65.5219 0.931185 65.9984 0.930588 66.4955V110.118C0.936718 115.561 3.09565 120.779 6.93374 124.628C10.7718 128.477 15.9756 130.642 21.4035 130.648H103.195C103.691 130.647 104.166 130.45 104.517 130.098C104.867 129.747 105.065 129.27 105.065 128.773V66.4955C105.064 65.9984 104.867 65.5219 104.517 65.1704C104.166 64.819 103.691 64.6213 103.195 64.6207H2.80017Z" fill="#CCCCCC"/>
<path d="M83.35 84.9531H22.6457C22.0884 84.9531 21.554 84.7311 21.1599 84.3359C20.7658 83.9407 20.5444 83.4048 20.5444 82.8459C20.5444 82.2871 20.7658 81.7511 21.1599 81.3559C21.554 80.9608 22.0884 80.7388 22.6457 80.7388H83.35C83.9073 80.7388 84.4418 80.9608 84.8358 81.3559C85.2299 81.7511 85.4513 82.2871 85.4513 82.8459C85.4513 83.4048 85.2299 83.9407 84.8358 84.3359C84.4418 84.7311 83.9073 84.9531 83.35 84.9531Z" fill="#CCCCCC"/>
<path d="M83.35 99.4687H22.6457C22.0884 99.4687 21.554 99.2467 21.1599 98.8515C20.7658 98.4563 20.5444 97.9204 20.5444 97.3615C20.5444 96.8027 20.7658 96.2667 21.1599 95.8716C21.554 95.4764 22.0884 95.2544 22.6457 95.2544H83.35C83.9073 95.2544 84.4418 95.4764 84.8358 95.8716C85.2299 96.2667 85.4513 96.8027 85.4513 97.3615C85.4513 97.9204 85.2299 98.4563 84.8358 98.8515C84.4418 99.2467 83.9073 99.4687 83.35 99.4687Z" fill="#CCCCCC"/>
<path d="M83.35 114.4H22.6457C22.0884 114.4 21.554 114.178 21.1599 113.783C20.7658 113.387 20.5444 112.852 20.5444 112.293C20.5444 111.734 20.7658 111.198 21.1599 110.803C21.554 110.408 22.0884 110.186 22.6457 110.186H83.35C83.9073 110.186 84.4418 110.408 84.8358 110.803C85.2299 111.198 85.4513 111.734 85.4513 112.293C85.4513 112.852 85.2299 113.387 84.8358 113.783C84.4418 114.178 83.9073 114.4 83.35 114.4Z" fill="#CCCCCC"/>
<path d="M103.309 79.7571C110.239 79.7571 115.857 74.1235 115.857 67.174C115.857 60.2245 110.239 54.5908 103.309 54.5908C96.3789 54.5908 90.7609 60.2245 90.7609 67.174C90.7609 74.1235 96.3789 79.7571 103.309 79.7571Z" fill="#044990"/>
<path d="M101.597 73.7226C101.381 73.7226 101.167 73.672 100.973 73.5748C100.779 73.4776 100.611 73.3365 100.481 73.1626L97.0575 68.5854C96.9475 68.4384 96.8675 68.271 96.822 68.093C96.7765 67.9149 96.7664 67.7296 96.7924 67.5476C96.8183 67.3657 96.8797 67.1906 96.9731 67.0325C97.0665 66.8743 97.19 66.7362 97.3367 66.6259C97.4833 66.5156 97.6502 66.4354 97.8277 66.3897C98.0053 66.3441 98.1901 66.334 98.3716 66.36C98.553 66.386 98.7276 66.4476 98.8853 66.5413C99.043 66.6349 99.1808 66.7588 99.2908 66.9059L101.53 69.9002L107.283 61.2478C107.488 60.9389 107.807 60.7245 108.17 60.6517C108.533 60.5789 108.91 60.6537 109.218 60.8596C109.527 61.0655 109.74 61.3857 109.813 61.7497C109.886 62.1138 109.811 62.4918 109.606 62.8007L102.759 73.0993C102.635 73.2856 102.468 73.4393 102.273 73.5477C102.078 73.6561 101.859 73.7159 101.636 73.7222C101.623 73.7224 101.61 73.7226 101.597 73.7226Z" fill="white"/>
<path d="M205.106 189.397H90.6607C85.0478 189.391 79.6666 187.152 75.6977 183.172C71.7287 179.192 69.4962 173.796 69.4899 168.167V104.005C69.4909 103.125 69.8399 102.282 70.4603 101.66C71.0808 101.038 71.922 100.688 72.7994 100.687H205.106C205.984 100.688 206.825 101.038 207.445 101.66C208.066 102.282 208.415 103.125 208.416 104.005V186.078C208.415 186.958 208.066 187.802 207.445 188.424C206.825 189.046 205.984 189.396 205.106 189.397Z" fill="white"/>
<path d="M205.106 189.631H90.6607C84.9861 189.624 79.5458 187.361 75.5333 183.337C71.5207 179.314 69.2637 173.858 69.2572 168.168V104.006C69.2583 103.064 69.6318 102.161 70.2958 101.495C70.9599 100.829 71.8603 100.455 72.7994 100.454H205.106C206.045 100.455 206.946 100.829 207.61 101.495C208.274 102.161 208.647 103.064 208.648 104.006V186.078C208.647 187.02 208.274 187.923 207.61 188.589C206.946 189.255 206.045 189.63 205.106 189.631ZM72.7994 101.387C72.107 101.388 71.4432 101.664 70.9536 102.155C70.464 102.646 70.1886 103.311 70.1878 104.006V168.168C70.1939 173.611 72.3529 178.829 76.1909 182.678C80.029 186.526 85.2328 188.691 90.6607 188.698H205.106C205.799 188.697 206.462 188.42 206.952 187.929C207.441 187.438 207.717 186.773 207.718 186.078V104.006C207.717 103.311 207.441 102.646 206.952 102.155C206.462 101.664 205.799 101.388 205.106 101.387H72.7994Z" fill="#CCCCCC"/>
<path d="M178.952 128.33H98.953C98.589 128.331 98.2285 128.259 97.8921 128.12C97.5558 127.981 97.2501 127.776 96.9925 127.518C96.735 127.26 96.5307 126.954 96.3913 126.617C96.2519 126.28 96.1802 125.918 96.1802 125.553C96.1802 125.188 96.2519 124.827 96.3913 124.49C96.5307 124.153 96.735 123.846 96.9925 123.588C97.2501 123.331 97.5558 123.126 97.8921 122.987C98.2285 122.847 98.589 122.776 98.953 122.776H178.952C179.316 122.776 179.677 122.847 180.013 122.987C180.35 123.126 180.655 123.331 180.913 123.588C181.17 123.846 181.375 124.153 181.514 124.49C181.653 124.827 181.725 125.188 181.725 125.553C181.725 125.918 181.653 126.28 181.514 126.617C181.375 126.954 181.17 127.26 180.913 127.518C180.655 127.776 180.35 127.981 180.013 128.12C179.677 128.259 179.316 128.331 178.952 128.33Z" fill="#CCCCCC"/>
<path d="M178.952 147.46H98.953C98.589 147.46 98.2285 147.389 97.8921 147.249C97.5558 147.11 97.2501 146.905 96.9925 146.648C96.735 146.39 96.5307 146.083 96.3913 145.746C96.2519 145.409 96.1802 145.048 96.1802 144.683C96.1802 144.318 96.2519 143.956 96.3913 143.619C96.5307 143.282 96.735 142.976 96.9925 142.718C97.2501 142.46 97.5558 142.255 97.8921 142.116C98.2285 141.977 98.589 141.905 98.953 141.906H178.952C179.687 141.906 180.391 142.198 180.911 142.719C181.43 143.24 181.722 143.946 181.722 144.683C181.722 145.419 181.43 146.125 180.911 146.646C180.391 147.167 179.687 147.46 178.952 147.46Z" fill="#CCCCCC"/>
<path d="M178.953 167.136H98.9531C98.2186 167.136 97.5142 166.844 96.9949 166.323C96.4756 165.802 96.1838 165.096 96.1838 164.359C96.1838 163.623 96.4756 162.917 96.9949 162.396C97.5142 161.875 98.2186 161.583 98.9531 161.583H178.953C179.316 161.582 179.677 161.654 180.013 161.793C180.35 161.932 180.655 162.137 180.913 162.395C181.17 162.652 181.375 162.959 181.514 163.296C181.654 163.633 181.725 163.994 181.725 164.359C181.725 164.724 181.654 165.086 181.514 165.423C181.375 165.76 181.17 166.066 180.913 166.324C180.655 166.582 180.35 166.787 180.013 166.926C179.677 167.065 179.316 167.137 178.953 167.136Z" fill="#CCCCCC"/>
<path d="M205.522 121.638C214.295 121.638 221.406 114.507 221.406 105.71C221.406 96.9123 214.295 89.7808 205.522 89.7808C196.749 89.7808 189.637 96.9123 189.637 105.71C189.637 114.507 196.749 121.638 205.522 121.638Z" fill="#044990"/>
<path d="M203.355 114C203.081 114 202.81 113.936 202.565 113.813C202.319 113.69 202.106 113.511 201.941 113.291L197.608 107.497C197.469 107.31 197.367 107.099 197.31 106.873C197.252 106.648 197.239 106.413 197.272 106.183C197.305 105.953 197.383 105.731 197.501 105.531C197.619 105.331 197.776 105.156 197.961 105.016C198.147 104.876 198.358 104.775 198.583 104.717C198.808 104.659 199.042 104.647 199.271 104.68C199.501 104.712 199.722 104.79 199.922 104.909C200.121 105.027 200.296 105.184 200.435 105.37L203.27 109.161L210.552 98.208C210.812 97.8177 211.216 97.5469 211.675 97.4551C212.135 97.3633 212.611 97.458 213.001 97.7185C213.391 97.979 213.661 98.3838 213.753 98.8442C213.845 99.3045 213.752 99.7828 213.492 100.174L204.825 113.211C204.668 113.446 204.458 113.641 204.21 113.778C203.963 113.915 203.687 113.991 203.404 113.999C203.388 113.999 203.371 114 203.355 114Z" fill="white"/>
<path d="M246.673 316.284L240.211 318.451L228.798 294.486L238.337 291.287L246.673 316.284Z" fill="#FFB6B6"/>
<path d="M250.417 322.013L229.578 327.601L229.49 327.337C228.766 325.164 228.928 324.239 229.948 322.189C230.447 321.179 231.14 320.279 231.988 319.54C232.836 318.801 233.822 318.238 234.888 317.883L234.889 317.883L237.729 313.711L245.797 314.225L247.616 313.615L250.417 322.013Z" fill="#2F2E41"/>
<path d="M262.64 322.377H255.826L252.584 296.019L262.642 296.019L262.64 322.377Z" fill="#FFB6B6"/>
<path d="M264.378 327.601L242.405 327.6V327.322C242.405 325.031 243.295 324.277 244.911 322.657C245.703 321.858 246.645 321.225 247.683 320.794C248.721 320.363 249.834 320.142 250.958 320.145H250.958L254.972 317.092L262.46 320.146L264.378 320.146L264.378 327.601Z" fill="#2F2E41"/>
<path d="M210.778 111.195C210.918 111.911 211.213 112.587 211.642 113.177C212.072 113.766 212.624 114.253 213.262 114.605C213.899 114.957 214.606 115.164 215.332 115.212C216.058 115.261 216.786 115.149 217.464 114.885L225.331 123.121L231.488 119.547L220.215 108.073C219.697 106.96 218.79 106.076 217.665 105.589C216.541 105.102 215.277 105.046 214.114 105.43C212.95 105.815 211.968 106.615 211.353 107.677C210.739 108.74 210.534 109.991 210.778 111.195Z" fill="#FFB6B6"/>
<path d="M261.691 152.607L265.238 148.928L244.728 129.88L224.086 111.398L218.369 119.499L240 139.746L261.691 152.607Z" fill="#E4E4E4"/>
<path d="M249.089 277.607C249.089 272.983 249.181 269.684 249.254 267.034C249.469 259.278 249.526 257.193 246.566 243.836L245.806 240.406L241.323 253.892C239.891 258.194 239.16 262.699 239.156 267.234L246.068 308.822H231.941L221.594 263.862L221.589 250.109C220.678 249.163 220.168 247.899 220.168 246.583C220.168 245.268 220.678 244.004 221.589 243.058L225.027 222.454L228.506 194.686H266.617C266.617 194.686 273.343 208.665 266.659 222.533L266.658 277.624L263.205 315.716H252.543L249.089 277.607Z" fill="#2F2E41"/>
<path d="M264.287 198.047L228.639 195.068L228.454 195.053L231.299 143.703C231.466 140.475 232.596 137.371 234.542 134.793C236.488 132.216 239.161 130.283 242.214 129.246V125.652C242.215 124.763 242.568 123.91 243.195 123.281C243.823 122.652 244.673 122.298 245.56 122.297H250.768C251.39 122.295 252 122.468 252.529 122.796C253.058 123.123 253.484 123.593 253.761 124.152L256.308 129.26L265.938 136.986C270.695 140.802 266.867 179.061 266.661 181.08L268.99 192.759C269.118 193.401 269.103 194.064 268.945 194.7C268.787 195.336 268.491 195.929 268.077 196.436C267.663 196.943 267.143 197.352 266.553 197.633C265.963 197.915 265.318 198.061 264.665 198.063C264.539 198.063 264.414 198.057 264.287 198.047Z" fill="#E4E4E4"/>
<path d="M226.536 211.605C227.1 211.143 227.556 210.564 227.872 209.906C228.188 209.249 228.356 208.53 228.365 207.801C228.374 207.071 228.223 206.349 227.924 205.684C227.624 205.019 227.183 204.428 226.631 203.953L230.167 193.113L224.123 189.352L219.343 204.729C218.608 205.712 218.258 206.931 218.36 208.155C218.461 209.379 219.007 210.524 219.894 211.371C220.781 212.219 221.947 212.711 223.171 212.754C224.395 212.797 225.593 212.388 226.536 211.605Z" fill="#FFB6B6"/>
<path d="M238.968 137.917L234.06 136.277L226.972 167.99L220.444 199.528L230.263 200.977L237.877 167.443L238.968 137.917Z" fill="#E4E4E4"/>
<path d="M244.327 119.015C250.793 119.015 256.035 113.759 256.035 107.275C256.035 100.791 250.793 95.5342 244.327 95.5342C237.861 95.5342 232.619 100.791 232.619 107.275C232.619 113.759 237.861 119.015 244.327 119.015Z" fill="#FFB6B6"/>
<path d="M228.574 101.525C228.682 100.412 229 99.3306 229.511 98.3371C230.059 99.5305 231.766 99.7376 232.934 99.1436C234.103 98.5496 234.886 97.4214 235.721 96.4093C237.924 93.7384 240.954 91.572 244.389 91.1773C247.823 90.7828 251.608 92.5211 252.906 95.734C253.488 94.9232 254.731 94.833 255.609 95.3042C256.458 95.841 257.121 96.628 257.506 97.5572C258.37 99.3355 258.859 101.274 258.941 103.25C259.023 105.227 258.696 107.199 257.982 109.043C256.536 112.713 252.965 117.657 249.28 119.042C247.044 119.882 244.784 118.806 242.405 119.042C242.53 116.438 243.033 113.226 243.158 110.622C243.226 109.197 243.236 107.601 242.265 106.558C241.967 106.274 241.611 106.06 241.221 105.929C240.831 105.799 240.418 105.757 240.01 105.804C239.602 105.852 239.209 105.989 238.86 106.206C238.511 106.423 238.213 106.714 237.988 107.058C237.868 106.249 237.595 105.47 237.185 104.762C236.974 104.411 236.67 104.127 236.307 103.94C235.944 103.753 235.535 103.672 235.128 103.706C234.135 103.869 233.522 104.892 232.61 105.32C232.092 105.528 231.524 105.572 230.98 105.447C230.436 105.322 229.944 105.034 229.568 104.62C229.203 104.198 228.927 103.706 228.756 103.174C228.586 102.642 228.524 102.082 228.574 101.525Z" fill="#2F2E41"/>
<path opacity="0.1" d="M245.843 167.301L232.093 194.877H242.406L245.843 167.301Z" fill="black"/>
<path d="M338 328.445C338 328.518 337.986 328.59 337.958 328.658C337.93 328.725 337.89 328.786 337.838 328.838C337.787 328.89 337.726 328.931 337.658 328.958C337.591 328.986 337.519 329 337.446 329H74.8856C74.7388 329 74.5979 328.942 74.4941 328.838C74.3902 328.733 74.3319 328.592 74.3319 328.445C74.3319 328.298 74.3902 328.156 74.4941 328.052C74.5979 327.948 74.7388 327.89 74.8856 327.89H337.446C337.519 327.889 337.591 327.904 337.658 327.931C337.726 327.959 337.787 328 337.838 328.052C337.89 328.103 337.931 328.165 337.958 328.232C337.986 328.3 338 328.372 338 328.445Z" fill="#CACACA"/>
</g>
<defs>
<clipPath id="clip0_94_17">
<rect width="338" height="329" fill="white"/>
</clipPath>
</defs>
</svg>
