<svg width="827" height="223" viewBox="0 0 827 223" fill="none" xmlns="http://www.w3.org/2000/svg">
<path d="M275.267 121.705C271.885 124.392 267.483 126.477 262.061 127.96C256.64 129.443 249.967 130.184 242.044 130.184C234.166 130.184 225.779 129.466 216.883 128.03V36.4217C225.872 34.9853 233.657 34.2671 240.236 34.2671C246.863 34.2671 252.284 34.8926 256.501 36.1437C260.764 37.3948 264.239 39.0861 266.926 41.2176C272.209 45.3416 274.85 50.6935 274.85 57.2733C274.85 63.8068 272.464 69.2282 267.691 73.5376C273.344 75.2984 277.723 78.6346 280.828 83.5463C283.654 87.9483 285.067 92.8369 285.067 98.2119C285.067 103.541 284.28 108.105 282.704 111.904C281.175 115.704 278.696 118.971 275.267 121.705ZM235.302 70.9659C237.248 71.2902 239.68 71.4524 242.6 71.4524C245.519 71.4524 247.905 71.0817 249.759 70.3403C251.658 69.5526 253.118 68.5795 254.137 67.4211C255.806 65.5213 256.64 62.8801 256.64 59.4975C256.64 52.4079 252.469 48.8632 244.129 48.8632C240.607 48.8632 237.665 49.0022 235.302 49.2802V70.9659ZM245.588 85.84C241.696 85.84 238.267 86.0948 235.302 86.6046V113.92C238.545 114.754 241.951 115.171 245.519 115.171C249.087 115.171 252.215 114.754 254.902 113.92C257.636 113.04 259.93 111.858 261.783 110.375C265.536 107.317 267.413 103.425 267.413 98.6985C267.413 90.1262 260.138 85.84 245.588 85.84ZM314.538 120.662C314.538 124.647 314.63 127.242 314.816 128.447H297.161V24.8838H314.538V120.662ZM377.648 122.122C371.717 127.033 365.253 129.489 358.256 129.489C350.75 129.489 344.865 126.964 340.602 121.913C336.524 117.002 334.486 110.26 334.486 101.687V74.0936C334.486 64.8262 334.277 59.5207 333.86 58.1769C333.489 56.7868 333.211 55.9064 333.026 55.5357C335.158 55.721 337.382 55.8137 339.699 55.8137H345.467C346.997 55.8137 349.012 55.7442 351.514 55.6052V95.8488C351.514 105.394 354.109 110.931 359.299 112.461C360.874 112.924 362.589 113.156 364.442 113.156C369.91 113.156 374.312 111.163 377.648 107.178V55.8137H394.886V119.55C394.886 123.628 395.071 126.593 395.442 128.447H377.648V122.122ZM413.652 92.721C413.652 87.2996 414.579 82.2721 416.432 77.6384C418.286 73.0047 420.904 68.9502 424.286 65.4749C431.515 58.1074 440.968 54.4236 452.645 54.4236C462.514 54.4236 470.438 57.6903 476.415 64.2238C482.3 70.5257 485.243 78.4493 485.243 87.9947C485.243 91.6553 484.965 94.1575 484.409 95.5012C479.775 96.7987 470.345 97.4474 456.12 97.4474H431.654C432.859 102.405 435.662 106.275 440.064 109.055C444.466 111.789 450.189 113.156 457.232 113.156C464.6 113.156 470.925 111.835 476.207 109.194C477.597 108.499 478.64 107.85 479.335 107.248C479.242 109.194 479.126 111.186 478.987 113.225L478.223 124.068C474.701 126.477 469.002 128.146 461.124 129.072C458.807 129.35 456.583 129.489 454.452 129.489C442.682 129.489 432.951 126.06 425.26 119.203C417.521 112.298 413.652 103.471 413.652 92.721ZM466.754 83.9634C464.854 74.0009 459.433 69.0197 450.49 69.0197C443.447 69.0197 438.095 72.0548 434.434 78.1249C433.322 79.9784 432.465 82.0172 431.863 84.2414C432.975 84.2877 434.342 84.334 435.963 84.3804H441.107C442.821 84.4267 444.466 84.4499 446.042 84.4499H450.003C452.367 84.4499 454.683 84.4267 456.954 84.3804L462.653 84.1719C464.183 84.1255 465.549 84.056 466.754 83.9634ZM524.652 130.184C517.146 130.184 510.079 129.582 503.453 128.377V35.3791C509.57 34.6378 516.659 34.2671 524.722 34.2671C532.831 34.2671 540.152 35.3791 546.685 37.6033C553.265 39.7811 558.756 42.9089 563.158 46.9865C572.055 55.1418 576.503 66.5639 576.503 81.2526C576.503 97.7022 571.545 110.19 561.629 118.716C552.732 126.362 540.407 130.184 524.652 130.184ZM521.524 113.225C524.536 113.781 527.548 114.059 530.56 114.059C533.572 114.059 536.816 113.48 540.291 112.322C543.766 111.117 546.778 109.263 549.327 106.761C554.794 101.479 557.528 93.7868 557.528 83.6853C557.528 67.0967 551.481 56.9026 539.387 53.103C535.402 51.8519 530.792 51.2264 525.556 51.2264H523.679C522.984 51.2264 522.266 51.2495 521.524 51.2959V113.225ZM611.603 120.662C611.603 124.647 611.696 127.242 611.881 128.447H594.574V55.8137H611.603V61.1656C615.542 56.6709 619.666 54.4236 623.975 54.4236C628.331 54.4236 631.76 54.9565 634.262 56.0222L633.011 74.7191L632.733 74.9277C631.111 72.0548 627.752 70.6183 622.655 70.6183C620.708 70.6183 618.716 71.2902 616.677 72.634C614.685 73.9314 612.993 75.6691 611.603 77.8469V120.662ZM690.7 124.137C684.12 127.705 678.166 129.489 672.837 129.489C667.509 129.489 662.945 129.003 659.145 128.03C655.345 127.01 652.125 125.528 649.484 123.581C644.109 119.643 641.421 113.943 641.421 106.483C641.421 99.8106 644.711 94.2501 651.291 89.8018C658.427 84.9828 668.111 82.5732 680.344 82.5732L683.124 82.6428C683.68 82.6891 684.306 82.7354 685.001 82.7818C685.696 82.7818 686.321 82.8281 686.878 82.9208C686.507 75.5069 683.31 71.1744 677.286 69.9233C675.293 69.5062 673.162 69.2977 670.891 69.2977C668.667 69.2977 666.466 69.5062 664.288 69.9233C662.157 70.294 660.072 70.8037 658.033 71.4524C653.538 72.8888 650.318 74.5338 648.372 76.3873L648.163 76.2483L646.078 60.8876C654.28 56.5783 663.246 54.4236 672.976 54.4236C688.082 54.4236 697.744 59.8682 701.96 70.7573C703.304 74.2326 703.976 78.1481 703.976 82.5037V107.665C703.976 113.04 705.876 116.7 709.675 118.646L697.095 130.184C694.454 128.794 692.322 126.779 690.7 124.137ZM686.947 95.4317C685.696 95.2 684.399 95.0842 683.055 95.0842H680.275C670.034 95.0842 663.524 97.3547 660.744 101.896C659.909 103.239 659.492 104.653 659.492 106.136C659.492 107.618 659.747 108.939 660.257 110.097C660.813 111.209 661.717 112.136 662.968 112.878C665.377 114.268 668.945 114.963 673.672 114.963C678.444 114.963 682.893 113.827 687.017 111.557C686.97 111.047 686.947 110.514 686.947 109.958V95.4317ZM760.414 63.8068C760.043 65.1506 759.858 68.5332 759.858 73.9546V80.0711H743.107V128.447H726.079V80.0711H715.861C715.908 77.0128 715.954 74.3021 716 71.9389L716.139 64.5019V63.8068H726.079V59.4975C726.079 48.3766 728.673 39.4336 733.863 32.6684C739.285 25.6716 746.745 22.1731 756.244 22.1731C760.275 22.1731 762.939 22.4512 764.237 23.0072L764.306 40.453L764.167 40.8006C762.407 39.0398 760.159 38.1594 757.425 38.1594C754.738 38.1594 752.56 38.6227 750.892 39.5495C749.224 40.4299 747.811 41.7041 746.652 43.3723C744.289 46.7085 743.107 51.2727 743.107 57.0648V63.8068H760.414ZM805.523 113.156C811.501 113.156 815.601 111.603 817.826 108.499H818.382L818.59 124.624C816.32 126.894 812.103 128.4 805.94 129.142C804.272 129.373 802.187 129.489 799.685 129.489C797.229 129.489 794.541 129.026 791.622 128.099C788.749 127.172 786.293 125.667 784.254 123.581C780.038 119.272 777.929 112.53 777.929 103.355V71.7999H767.434C767.388 70.4562 767.365 69.0892 767.365 67.6991V56.9953C767.365 56.2076 767.388 55.8137 767.434 55.8137H777.929V36.0047H794.958V55.8137H814.072V71.7999H794.958V100.158C794.958 107.433 796.974 111.58 801.005 112.6C802.303 112.97 803.809 113.156 805.523 113.156Z" fill="#044990"/>
<path d="M225.201 202.141C223.405 202.028 221.272 201.972 218.803 201.972H217.905V164.515C219.065 164.608 219.888 164.655 220.375 164.655H221.525C223.003 164.655 224.228 164.58 225.201 164.431V179.386H238.388V164.515C239.94 164.608 241.446 164.655 242.905 164.655C244.383 164.655 245.309 164.58 245.683 164.431V202.141C244.785 202.028 243.008 201.972 240.352 201.972H238.388V186.12H225.201V202.141ZM254.297 164.29C255.793 161.952 257.355 159.895 258.982 158.118L265.015 162.859C264.211 163.851 263.462 164.823 262.77 165.777C262.77 165.777 262.05 166.797 260.61 168.836L254.297 164.29ZM261.676 198.83C261.676 200.439 261.713 201.486 261.788 201.972H254.662V172.652H261.676V198.83ZM276.238 198.83C276.238 200.439 276.276 201.486 276.35 201.972H269.364V172.652H276.238V174.812C277.828 172.998 279.493 172.091 281.233 172.091C282.991 172.091 284.375 172.306 285.385 172.736L284.88 180.283L284.768 180.368C284.113 179.208 282.757 178.628 280.699 178.628C279.914 178.628 279.109 178.899 278.286 179.442C277.482 179.965 276.799 180.667 276.238 181.546V198.83ZM287.91 164.29C289.407 161.952 290.969 159.895 292.596 158.118L298.629 162.859C297.824 163.851 297.076 164.823 296.384 165.777C296.384 165.777 295.664 166.797 294.223 168.836L287.91 164.29ZM295.29 198.83C295.29 200.439 295.327 201.486 295.402 201.972H288.275V172.652H295.29V198.83ZM310.609 198.381C310.609 200.027 310.684 201.224 310.834 201.972H303.791V172.652H310.609V175.149C313.078 173.11 315.716 172.091 318.522 172.091C321.589 172.091 324.04 173.138 325.873 175.233C327.706 177.309 328.623 180.05 328.623 183.454V194.621C328.623 197.782 328.669 199.681 328.763 200.317C328.856 200.953 328.978 201.364 329.128 201.552C329.296 201.739 329.436 201.907 329.549 202.057L329.492 202.169C327.977 202.038 326.874 201.972 326.182 201.972H324.218C323.619 201.972 322.815 202 321.805 202.057V186.765C321.805 181.284 320.14 178.544 316.81 178.544C314.341 178.544 312.274 179.816 310.609 182.36V198.381ZM344.56 194.172C343.868 195.089 343.522 195.818 343.522 196.361C343.522 196.885 343.606 197.296 343.774 197.595C343.942 197.876 344.307 198.147 344.868 198.409C346.103 198.989 348.132 199.503 350.957 199.952C353.781 200.382 355.989 200.925 357.579 201.58C359.187 202.234 360.487 203.039 361.479 203.993C363.331 205.807 364.256 208.379 364.256 211.709C364.256 215.038 363.087 217.591 360.749 219.368C358.411 221.164 354.941 222.062 350.34 222.062C345.701 222.062 341.96 221.052 339.116 219.032C336.273 217.012 334.814 214.327 334.739 210.979C334.627 207.088 336.152 204.273 339.313 202.534C338.452 201.823 337.872 200.99 337.573 200.036C337.293 199.064 337.152 197.96 337.152 196.726C337.152 194.649 338.06 192.891 339.874 191.451C337.76 189.449 336.703 186.961 336.703 183.987C336.703 180.658 337.901 177.87 340.295 175.626C342.82 173.269 346.094 172.091 350.115 172.091C352.229 172.091 354.212 172.483 356.063 173.269C358.495 172.24 360.282 171.342 361.423 170.575C362.564 169.79 363.293 169.219 363.611 168.864L363.779 168.892C363.948 169.341 364.144 169.977 364.369 170.8L364.874 172.82C365.323 174.485 365.594 175.626 365.687 176.243C364.864 177.141 363.415 177.777 361.338 178.151C362.143 179.704 362.545 181.35 362.545 183.089C362.545 184.829 362.246 186.409 361.647 187.831C361.048 189.234 360.197 190.469 359.094 191.535C356.643 193.836 353.52 194.986 349.722 194.986C347.871 194.986 346.15 194.715 344.56 194.172ZM343.83 181.546C343.568 182.219 343.437 182.902 343.437 183.594C343.437 184.286 343.578 184.95 343.858 185.586C344.158 186.222 344.588 186.793 345.149 187.298C346.402 188.42 348.039 188.981 350.059 188.981C351.593 188.981 352.921 188.467 354.043 187.438C355.222 186.316 355.811 184.969 355.811 183.398C355.811 181.808 355.278 180.527 354.212 179.554C353.145 178.581 351.677 178.095 349.807 178.095C346.72 178.095 344.728 179.245 343.83 181.546ZM350.704 216.114C355.306 216.114 357.607 214.505 357.607 211.288C357.607 209.754 356.858 208.519 355.362 207.584C353.679 206.518 350.789 205.685 346.692 205.087L345.233 204.834C343.999 205.489 343.091 206.331 342.511 207.36C341.932 208.388 341.642 209.361 341.642 210.278C341.66 211.213 341.885 212.017 342.315 212.691C342.745 213.364 343.344 213.953 344.111 214.458C345.813 215.562 348.011 216.114 350.704 216.114ZM370.261 205.227C370.523 203.188 370.654 201.486 370.654 200.121C370.654 198.736 370.551 197.296 370.345 195.8L377.332 194.677L377.556 196.108C377.706 197.156 377.78 198.241 377.78 199.363C377.78 200.467 377.724 201.486 377.612 202.421C377.5 203.375 377.35 204.254 377.163 205.059C376.733 206.817 376.247 207.865 375.704 208.201C374.788 208.781 372.59 209.436 369.111 210.165L368.942 209.997C369.578 208.875 370.018 207.285 370.261 205.227ZM413.526 202.674C410.496 202.674 407.644 202.431 404.969 201.944V164.403C407.438 164.103 410.3 163.954 413.555 163.954C416.828 163.954 419.783 164.403 422.421 165.3C425.077 166.18 427.294 167.442 429.071 169.088C432.662 172.38 434.458 176.991 434.458 182.921C434.458 189.561 432.456 194.602 428.453 198.044C424.862 201.131 419.886 202.674 413.526 202.674ZM412.264 195.828C413.48 196.052 414.696 196.164 415.911 196.164C417.127 196.164 418.437 195.931 419.84 195.463C421.242 194.977 422.458 194.228 423.487 193.218C425.694 191.086 426.798 187.981 426.798 183.903C426.798 177.206 424.357 173.091 419.475 171.557C417.866 171.052 416.005 170.8 413.891 170.8H413.134C412.853 170.8 412.563 170.809 412.264 170.828V195.828ZM439.873 187.466C439.873 185.409 440.219 183.445 440.911 181.574C441.622 179.685 442.632 178.039 443.941 176.636C446.803 173.606 450.516 172.091 455.081 172.091C459.626 172.091 463.236 173.521 465.911 176.383C468.474 179.114 469.755 182.659 469.755 187.017C469.755 191.376 468.436 194.986 465.799 197.848C463.012 200.878 459.317 202.393 454.716 202.393C449.965 202.393 446.242 200.906 443.549 197.932C441.098 195.22 439.873 191.731 439.873 187.466ZM446.691 187.298C446.691 188.476 446.888 189.617 447.28 190.721C447.673 191.825 448.234 192.769 448.964 193.555C450.516 195.257 452.555 196.108 455.081 196.108C457.419 196.108 459.261 195.276 460.608 193.611C461.917 192.002 462.572 189.907 462.572 187.326C462.572 184.707 461.899 182.594 460.552 180.985C459.112 179.264 457.138 178.404 454.632 178.404C452.088 178.404 450.096 179.32 448.655 181.153C447.346 182.837 446.691 184.885 446.691 187.298ZM482.998 198.381C482.998 200.027 483.073 201.224 483.223 201.972H476.18V172.652H482.998V175.149C485.467 173.11 488.105 172.091 490.911 172.091C493.978 172.091 496.429 173.138 498.262 175.233C500.095 177.309 501.012 180.05 501.012 183.454V194.621C501.012 197.782 501.058 199.681 501.152 200.317C501.245 200.953 501.367 201.364 501.517 201.552C501.685 201.739 501.825 201.907 501.938 202.057L501.881 202.169C500.366 202.038 499.263 201.972 498.571 201.972H496.607C496.008 201.972 495.204 202 494.194 202.057V186.765C494.194 181.284 492.529 178.544 489.199 178.544C486.73 178.544 484.663 179.816 482.998 182.36V198.381ZM507.83 187.551C507.83 185.362 508.204 183.332 508.952 181.462C509.7 179.591 510.757 177.955 512.123 176.552C515.041 173.578 518.857 172.091 523.57 172.091C527.555 172.091 530.753 173.409 533.166 176.047C535.542 178.591 536.73 181.789 536.73 185.643C536.73 187.12 536.617 188.13 536.393 188.673C534.522 189.197 530.716 189.458 524.973 189.458H515.097C515.583 191.46 516.715 193.022 518.492 194.144C520.269 195.248 522.579 195.8 525.422 195.8C528.396 195.8 530.95 195.266 533.082 194.2C533.643 193.92 534.064 193.658 534.345 193.415C534.307 194.2 534.26 195.005 534.204 195.828L533.896 200.205C532.474 201.177 530.173 201.851 526.993 202.225C526.058 202.337 525.16 202.393 524.3 202.393C519.549 202.393 515.621 201.009 512.515 198.241C509.392 195.454 507.83 191.89 507.83 187.551ZM529.266 184.015C528.499 179.994 526.311 177.983 522.701 177.983C519.857 177.983 517.697 179.208 516.219 181.658C515.77 182.407 515.424 183.23 515.181 184.127C515.63 184.146 516.182 184.165 516.836 184.184H518.913C519.605 184.202 520.269 184.212 520.905 184.212H522.504C523.458 184.212 524.393 184.202 525.31 184.184L527.611 184.099C528.228 184.081 528.78 184.053 529.266 184.015ZM574.692 187.466C574.131 187.504 573.532 187.522 572.896 187.522C572.261 187.522 571.316 187.476 570.063 187.382V201.972H562.627V164.459C565.246 164.122 568.463 163.954 572.279 163.954C577.479 163.954 581.351 164.917 583.895 166.844C586.458 168.752 587.739 171.707 587.739 175.71C587.739 178.815 586.57 181.471 584.232 183.678C583.465 184.389 582.586 185.007 581.595 185.53L587.318 197.595C588.441 200.083 589.301 201.561 589.9 202.028L589.759 202.169C587.945 201.87 585.092 201.879 581.202 202.197L574.692 187.466ZM572.812 170.575C571.858 170.575 570.942 170.622 570.063 170.716V181.434C570.979 181.565 572.055 181.63 573.289 181.63C574.524 181.63 575.562 181.527 576.404 181.322C577.246 181.097 577.975 180.76 578.592 180.312C579.92 179.32 580.584 177.833 580.584 175.85C580.584 173.868 579.892 172.474 578.508 171.67C577.217 170.94 575.319 170.575 572.812 170.575ZM594.529 164.29C596.026 161.952 597.588 159.895 599.215 158.118L605.247 162.859C604.443 163.851 603.695 164.823 603.003 165.777C603.003 165.777 602.283 166.797 600.842 168.836L594.529 164.29ZM601.909 198.83C601.909 200.439 601.946 201.486 602.021 201.972H594.894V172.652H601.909V198.83ZM617.565 194.172C616.873 195.089 616.527 195.818 616.527 196.361C616.527 196.885 616.611 197.296 616.779 197.595C616.948 197.876 617.312 198.147 617.874 198.409C619.108 198.989 621.138 199.503 623.962 199.952C626.787 200.382 628.994 200.925 630.584 201.58C632.193 202.234 633.493 203.039 634.484 203.993C636.336 205.807 637.262 208.379 637.262 211.709C637.262 215.038 636.093 217.591 633.755 219.368C631.416 221.164 627.947 222.062 623.345 222.062C618.706 222.062 614.965 221.052 612.122 219.032C609.279 217.012 607.819 214.327 607.745 210.979C607.632 207.088 609.157 204.273 612.318 202.534C611.458 201.823 610.878 200.99 610.579 200.036C610.298 199.064 610.158 197.96 610.158 196.726C610.158 194.649 611.065 192.891 612.879 191.451C610.766 189.449 609.709 186.961 609.709 183.987C609.709 180.658 610.906 177.87 613.3 175.626C615.825 173.269 619.099 172.091 623.121 172.091C625.234 172.091 627.217 172.483 629.069 173.269C631.501 172.24 633.287 171.342 634.428 170.575C635.569 169.79 636.298 169.219 636.616 168.864L636.785 168.892C636.953 169.341 637.15 169.977 637.374 170.8L637.879 172.82C638.328 174.485 638.599 175.626 638.693 176.243C637.87 177.141 636.42 177.777 634.344 178.151C635.148 179.704 635.55 181.35 635.55 183.089C635.55 184.829 635.251 186.409 634.652 187.831C634.054 189.234 633.203 190.469 632.099 191.535C629.649 193.836 626.525 194.986 622.728 194.986C620.876 194.986 619.155 194.715 617.565 194.172ZM616.835 181.546C616.574 182.219 616.443 182.902 616.443 183.594C616.443 184.286 616.583 184.95 616.864 185.586C617.163 186.222 617.593 186.793 618.154 187.298C619.407 188.42 621.044 188.981 623.064 188.981C624.598 188.981 625.926 188.467 627.049 187.438C628.227 186.316 628.816 184.969 628.816 183.398C628.816 181.808 628.283 180.527 627.217 179.554C626.151 178.581 624.682 178.095 622.812 178.095C619.725 178.095 617.733 179.245 616.835 181.546ZM623.71 216.114C628.311 216.114 630.612 214.505 630.612 211.288C630.612 209.754 629.864 208.519 628.367 207.584C626.684 206.518 623.794 205.685 619.697 205.087L618.238 204.834C617.004 205.489 616.097 206.331 615.517 207.36C614.937 208.388 614.647 209.361 614.647 210.278C614.666 211.213 614.89 212.017 615.32 212.691C615.751 213.364 616.349 213.953 617.116 214.458C618.818 215.562 621.016 216.114 623.71 216.114ZM650.954 198.83C650.954 200.439 650.992 201.486 651.066 201.972H644.08V161.849H650.954V174.84C653.367 173.007 655.855 172.091 658.418 172.091C661.56 172.091 664.085 173.129 665.993 175.205C667.864 177.281 668.799 180.031 668.799 183.454V194.621C668.799 197.782 668.846 199.681 668.939 200.317C669.033 200.953 669.155 201.364 669.304 201.552C669.472 201.739 669.613 201.907 669.725 202.057L669.669 202.169C668.154 202.038 667.05 201.972 666.358 201.972H664.366C663.749 201.972 662.935 202 661.925 202.057V185.811C661.925 183.23 661.354 181.322 660.213 180.087C659.353 179.152 658.184 178.684 656.706 178.684C654.518 178.684 652.6 179.947 650.954 182.472V198.83ZM689.871 195.8C692.284 195.8 693.939 195.173 694.837 193.92H695.061L695.146 200.429C694.229 201.346 692.527 201.954 690.039 202.253C689.366 202.346 688.524 202.393 687.514 202.393C686.522 202.393 685.438 202.206 684.259 201.832C683.099 201.458 682.108 200.85 681.285 200.008C679.583 198.269 678.732 195.547 678.732 191.843V179.105H674.495C674.476 178.563 674.467 178.011 674.467 177.45V173.129C674.467 172.811 674.476 172.652 674.495 172.652H678.732V164.655H685.606V172.652H693.322V179.105H685.606V190.553C685.606 193.489 686.42 195.164 688.047 195.575C688.571 195.725 689.179 195.8 689.871 195.8Z" fill="#0051A4"/>
<path d="M89.502 24.056C138.76 24.0563 178.692 63.988 178.692 113.246C178.692 162.505 138.76 202.438 89.502 202.438C40.2433 202.438 0.310547 162.505 0.310547 113.246C0.310707 63.9879 40.2434 24.056 89.502 24.056ZM84.2031 46.3626C49.5975 49.0672 22.3585 78.0051 22.3584 113.305C22.3584 148.605 49.5974 177.544 84.2031 180.248V126.053L69.8428 111.931L84.2031 97.808V46.3626ZM96.1064 180.074C130.095 176.759 156.657 148.103 156.657 113.243C156.657 78.3846 130.095 49.7294 96.1064 46.4144V180.074ZM111.892 68.6683C128.153 70.8818 140.862 90.0068 140.873 113.277V113.334C140.862 136.604 128.153 155.728 111.892 157.942V68.6683ZM52.5049 120.421L66.4785 134.006V154.707C57.5512 150.179 42.0761 133.463 41.7656 120.421H52.5049ZM66.4785 90.9222L52.5049 104.507H41.7656C42.0762 91.4655 57.5512 74.7494 66.4785 70.221V90.9222Z" fill="#044990"/>
</svg>
